<?xml version="1.0" standalone="no"?>
<!DOCTYPE svg PUBLIC "-//W3C//DTD SVG 20010904//EN"
 "http://www.w3.org/TR/2001/REC-SVG-20010904/DTD/svg10.dtd">
<svg version="1.0" xmlns="http://www.w3.org/2000/svg"
 width="300.000000pt" height="400.000000pt" viewBox="0 0 300.000000 400.000000"
 preserveAspectRatio="xMidYMid meet">
<metadata>
Created by potrace 1.10, written by Peter Selinger 2001-2011
</metadata>
<g transform="translate(0.000000,400.000000) scale(0.100000,-0.100000)"
fill="white" stroke="none">
<path d="M41 3942 c0 -7 -5 -11 -9 -8 -4 2 -14 1 -20 -3 -9 -5 1 -14 27 -26
32 -14 38 -21 32 -34 -7 -13 -4 -16 15 -16 13 0 24 6 24 13 0 11 12 14 77 17
12 0 25 4 29 8 4 4 14 7 23 7 14 0 14 -2 1 -10 -8 -5 -10 -10 -5 -10 6 0 17 6
24 13 10 10 16 7 32 -12 10 -13 19 -34 19 -47 0 -13 5 -24 11 -24 6 0 8 7 5
16 -25 64 -19 73 46 78 46 4 95 -9 117 -30 13 -11 12 -14 -2 -20 -9 -3 -14
-10 -11 -15 3 -5 1 -9 -4 -9 -5 0 -9 -6 -9 -12 0 -7 -4 -21 -8 -30 -4 -11 -3
-18 4 -18 6 0 11 8 11 19 0 27 26 44 56 37 17 -5 23 -3 19 4 -3 5 -15 10 -26
10 -17 0 -18 3 -9 20 6 11 7 20 2 20 -6 0 -12 8 -15 19 -4 17 -11 20 -117 35
-14 2 -29 0 -35 -4 -9 -7 -145 -19 -145 -12 0 1 10 7 23 12 18 8 15 9 -13 4
-19 -4 -40 -11 -47 -16 -8 -6 -21 -3 -39 9 -18 11 -25 13 -20 4 7 -10 3 -12
-15 -7 -20 6 -21 5 -6 -4 9 -6 22 -8 27 -5 21 13 31 -7 11 -22 -19 -12 -24
-12 -45 4 -14 10 -27 27 -29 38 -2 11 -5 14 -6 7z"/>
<path d="M750 3890 c0 -3 19 -6 42 -6 28 -1 36 1 25 7 -16 9 -67 9 -67 -1z"/>
<path d="M265 3870 c3 -5 2 -10 -3 -10 -5 0 -9 -7 -9 -16 0 -14 2 -14 14 2 16
22 17 34 2 34 -5 0 -7 -4 -4 -10z"/>
<path d="M348 3856 c12 -16 20 -32 17 -36 -3 -4 2 -10 10 -13 15 -6 11 16 -8
41 -14 18 3 15 26 -5 11 -10 17 -12 13 -5 -4 7 -1 12 9 12 10 0 13 -5 9 -12
-6 -10 -5 -10 8 -1 8 7 18 9 23 5 4 -4 6 -1 3 7 -2 9 -21 14 -53 15 -28 1 -57
5 -65 11 -8 5 -5 -4 8 -19z"/>
<path d="M869 3847 c36 -39 41 -42 41 -29 0 4 -17 20 -38 36 l-37 29 34 -36z"/>
<path d="M0 3845 c0 -14 4 -25 9 -25 4 0 6 11 3 25 -2 14 -6 25 -8 25 -2 0 -4
-11 -4 -25z"/>
<path d="M659 3862 c-8 -4 -26 -17 -40 -30 -13 -12 -39 -34 -57 -48 -18 -15
-30 -29 -27 -32 2 -3 13 2 22 10 10 9 29 19 43 23 14 4 29 13 33 19 6 8 10 8
14 -1 2 -7 13 -13 23 -13 10 0 28 -8 41 -19 21 -17 25 -17 35 -3 9 12 17 13
44 4 18 -7 43 -12 55 -12 24 0 40 -24 28 -43 -4 -7 0 -6 10 1 18 15 41 7 31
-10 -4 -7 -2 -8 4 -4 7 4 12 13 12 20 0 9 9 12 25 8 14 -2 22 -8 19 -13 -3 -5
2 -6 11 -3 8 4 27 -1 43 -11 l27 -16 -28 25 c-15 14 -45 30 -66 36 -22 6 -42
16 -44 23 -3 7 -6 4 -6 -6 -1 -10 -4 -17 -8 -15 -50 24 -63 33 -63 42 0 6 -4
5 -9 -2 -7 -11 -13 -9 -32 10 -13 13 -23 21 -22 19 2 -2 -6 -10 -17 -18 -17
-12 -23 -12 -42 1 -12 9 -32 16 -45 16 -36 0 -36 18 -1 34 18 8 26 14 18 14
-8 1 -22 -2 -31 -6z"/>
<path d="M543 3817 c-41 -10 -62 -30 -43 -42 6 -4 10 1 10 9 0 9 8 16 18 16
14 0 15 -2 2 -10 -8 -5 -10 -10 -5 -10 6 0 24 11 40 25 17 13 28 24 25 23 -3
0 -24 -6 -47 -11z"/>
<path d="M410 3813 c0 -6 -3 -18 -6 -26 -3 -9 3 -16 15 -20 13 -3 21 0 21 6
-1 16 -30 54 -30 40z"/>
<path d="M360 3770 c-18 -16 -25 -17 -32 -8 -5 10 -8 8 -8 -4 0 -26 32 -21 53
7 22 30 18 32 -13 5z"/>
<path d="M40 3770 c0 -6 4 -10 9 -10 5 0 17 -8 26 -17 16 -16 17 -15 14 2 -4
19 -49 42 -49 25z"/>
<path d="M251 3754 c13 -16 29 -19 29 -5 0 5 -9 11 -21 14 -16 4 -18 3 -8 -9z"/>
<path d="M973 3761 c20 -5 49 -19 64 -32 l27 -24 -18 29 c-17 26 -17 28 -2 23
9 -4 15 -3 12 1 -2 4 -31 8 -63 9 -51 1 -53 0 -20 -6z"/>
<path d="M778 3754 c6 -3 12 -11 12 -17 1 -13 35 -57 44 -57 10 0 6 34 -7 51
-7 9 -23 19 -37 22 -14 4 -19 4 -12 1z"/>
<path d="M1066 3744 c-3 -8 -2 -12 4 -9 6 3 10 2 10 -4 0 -5 3 -16 6 -25 4
-10 1 -16 -8 -16 -9 0 -13 -14 -13 -47 0 -47 1 -48 39 -60 22 -7 44 -9 50 -6
6 3 -6 -10 -26 -29 -47 -44 -48 -52 -3 -31 19 9 32 20 29 24 -2 4 0 10 6 14 5
3 10 1 10 -4 0 -6 5 -11 10 -11 6 0 27 -7 48 -17 20 -9 41 -17 45 -17 4 -1 13
-12 20 -26 7 -14 29 -33 50 -43 20 -9 37 -21 37 -26 0 -5 15 -24 33 -42 44
-44 57 -70 57 -112 0 -31 -3 -34 -21 -30 -17 5 -20 12 -17 43 3 31 1 36 -14
32 -10 -2 -18 -7 -18 -11 0 -21 53 -112 70 -121 33 -18 27 -81 -12 -127 -20
-22 -26 -34 -16 -30 9 3 19 1 21 -6 2 -7 3 -4 2 5 -3 20 18 42 29 30 5 -4 6 0
4 8 -1 9 2 18 7 20 34 16 -23 -157 -61 -186 -15 -12 -9 -44 7 -44 6 0 19 9 31
20 13 12 25 16 32 11 8 -6 12 4 13 32 0 23 8 67 17 96 13 45 14 61 4 88 -7 18
-16 33 -20 33 -4 0 -8 9 -8 20 0 11 -4 20 -9 20 -14 0 -23 31 -26 85 -2 38
-11 64 -39 107 -20 31 -36 62 -36 68 0 5 -5 10 -10 10 -7 0 -7 -8 1 -22 9 -19
9 -21 -1 -11 -7 7 -14 29 -16 50 -4 59 -5 60 -19 23 -8 -20 -14 -27 -14 -17
-1 10 -5 16 -10 13 -7 -5 -81 68 -81 80 0 2 7 1 16 -3 13 -5 15 -2 9 18 -10
32 -15 36 -24 20 -5 -8 -14 -10 -22 -6 -11 6 -12 5 -1 -6 17 -19 15 -29 -7
-29 -22 0 -40 20 -19 20 8 1 4 9 -9 19 -13 11 -23 24 -23 30 0 14 -54 71 -68
71 -5 0 -13 -7 -16 -16 -8 -22 -8 -26 3 -20 17 11 57 -12 58 -33 3 -37 -53
-23 -68 17 -12 30 12 72 40 72 19 0 44 -24 54 -50 5 -13 6 -13 6 0 2 25 -42
66 -66 62 -17 -3 -26 3 -33 22 -11 30 -16 32 -24 10z m413 -875 c-32 -24 -36
-17 -7 16 14 16 24 21 27 14 2 -7 -7 -20 -20 -30z"/>
<path d="M650 3744 c0 -10 33 -33 46 -34 7 0 14 10 17 23 6 20 5 21 -7 4 -12
-16 -15 -16 -29 -2 -16 16 -27 19 -27 9z"/>
<path d="M940 3656 c0 -7 7 -13 15 -13 8 0 15 4 15 8 0 4 -7 9 -15 13 -9 3
-15 0 -15 -8z"/>
<path d="M674 3575 c21 -16 32 -13 21 4 -3 6 -14 11 -23 11 -15 -1 -15 -2 2
-15z"/>
<path d="M1310 3527 c0 -16 16 -30 38 -33 19 -3 10 17 -16 34 -20 13 -22 13
-22 -1z"/>
<path d="M1137 3485 c-9 -7 -17 -16 -17 -20 0 -4 7 -2 15 5 8 6 23 9 35 5 18
-6 19 -9 8 -23 -11 -15 -11 -15 4 -4 14 11 18 10 27 -5 6 -10 11 -13 11 -8 0
6 7 -1 15 -15 8 -14 14 -20 15 -13 0 18 -57 80 -78 85 -10 3 -26 0 -35 -7z"/>
<path d="M1338 3398 c-3 -7 1 -23 8 -36 7 -14 11 -33 9 -43 -2 -11 0 -17 6
-14 5 4 9 3 9 -2 -1 -12 -22 -36 -54 -61 l-29 -22 43 3 c24 2 46 9 48 16 3 9
-2 11 -16 7 -19 -6 -19 -4 5 23 14 16 27 41 29 55 3 27 -10 36 -19 14 -3 -7
-4 2 -3 20 3 24 0 30 -9 22 -15 -12 -26 -3 -18 16 3 8 3 14 0 14 -3 0 -7 -6
-9 -12z"/>
<path d="M1390 3210 c0 -5 -11 -10 -25 -10 -14 0 -25 -4 -25 -10 0 -5 5 -10
11 -10 8 0 7 -6 -2 -17 -12 -15 -10 -15 8 1 14 11 29 16 40 12 16 -7 15 -9 -7
-27 -20 -15 -21 -18 -5 -12 18 6 19 5 6 -11 -12 -14 -12 -19 -1 -29 10 -9 11
-9 6 1 -4 6 -2 12 3 12 6 0 11 -4 11 -10 0 -6 10 -5 25 2 34 15 31 37 -10 81
-19 20 -35 33 -35 27z m53 -71 c3 -12 0 -22 -9 -26 -20 -8 -27 2 -19 26 8 27
21 27 28 0z"/>
<path d="M1280 3185 c0 -8 7 -15 16 -15 14 0 14 3 4 15 -7 8 -14 15 -16 15 -2
0 -4 -7 -4 -15z"/>
<path d="M1451 3091 c0 -8 -11 -25 -23 -38 -12 -13 -17 -23 -12 -23 17 0 45
41 41 58 -3 12 -5 13 -6 3z"/>
<path d="M1568 3010 c2 -16 7 -28 11 -26 10 6 31 -21 23 -30 -4 -4 -2 -4 5 0
21 12 26 -38 9 -73 -18 -34 -76 -71 -76 -48 0 7 7 22 15 33 23 30 18 40 -6 10
-11 -14 -25 -24 -30 -21 -5 4 -17 1 -26 -4 -17 -10 -16 -10 2 -11 20 -1 20 -1
0 -9 -11 -5 -26 -6 -32 -4 -7 3 -16 -2 -19 -11 -3 -9 -16 -16 -27 -16 -20 0
-20 -1 -3 -13 18 -13 18 -15 1 -41 -10 -14 -15 -30 -11 -34 4 -3 11 0 16 8 8
13 10 12 10 -2 0 -18 -30 -25 -44 -11 -10 10 -46 11 -40 1 3 -4 -11 -7 -30 -6
-21 2 -36 8 -36 16 0 6 -5 12 -11 12 -7 0 -9 -12 -7 -30 3 -17 2 -33 -2 -35
-10 -6 -2 -103 10 -125 5 -10 10 -28 10 -39 0 -12 4 -21 10 -21 11 0 34 -79
26 -88 -3 -3 -6 0 -6 6 0 16 -30 15 -30 0 0 -7 -5 -5 -11 5 -11 19 -29 14 -29
-9 0 -10 5 -12 13 -8 8 5 8 3 -2 -9 -7 -9 -17 -15 -21 -12 -5 3 -11 1 -15 -5
-3 -5 -11 -10 -16 -10 -6 0 -7 5 -4 10 4 6 -5 10 -21 10 -22 0 -25 -2 -14 -15
10 -13 9 -15 -11 -16 -22 0 -23 -1 -4 -8 11 -5 27 -5 35 -1 8 4 21 5 27 3 7
-3 25 5 39 16 35 28 44 26 44 -5 0 -18 -4 -25 -14 -21 -17 7 -29 -32 -16 -48
6 -7 7 -15 3 -18 -3 -4 -3 -7 1 -7 9 0 45 43 62 73 15 27 6 110 -21 192 -13
39 -25 91 -27 115 -3 44 -2 45 27 46 17 0 36 4 43 8 6 4 21 2 32 -4 11 -6 20
-7 20 -3 0 4 5 2 12 -5 9 -9 7 -16 -7 -32 -23 -26 -1 -26 25 0 11 11 17 26 14
34 -4 9 6 18 30 26 20 6 36 16 36 21 0 6 5 7 10 4 6 -4 10 -3 9 2 -1 4 3 21 9
36 7 16 9 33 6 39 -4 6 -2 8 3 5 16 -10 80 58 88 92 7 31 -11 77 -39 100 -9 8
-16 20 -16 27 0 8 -4 14 -8 14 -5 0 -7 -13 -4 -30z m-42 -215 c-3 -8 -16 -15
-28 -16 l-23 -1 23 -7 24 -6 -24 -21 c-13 -12 -31 -24 -42 -28 -15 -5 -17 -2
-13 14 3 11 1 18 -4 14 -5 -3 -9 0 -9 5 0 6 5 11 11 11 5 0 7 5 3 12 -5 8 -1
9 12 4 15 -6 17 -5 7 5 -19 19 -16 29 10 29 12 0 29 5 37 10 17 11 25 -2 16
-25z"/>
<path d="M1414 2988 c1 -20 5 -40 8 -43 4 -4 4 -14 1 -23 -4 -10 -2 -13 5 -8
15 9 15 43 -2 81 l-13 30 1 -37z"/>
<path d="M1310 2751 c0 -4 13 -8 30 -7 39 1 39 16 0 16 -16 0 -30 -4 -30 -9z"/>
<path d="M910 2655 c0 -14 4 -25 9 -25 4 0 6 11 3 25 -2 14 -6 25 -8 25 -2 0
-4 -11 -4 -25z"/>
<path d="M830 2582 c0 -16 29 -35 45 -28 8 3 15 0 15 -7 0 -8 4 -7 9 3 12 18
2 35 -12 21 -15 -15 -23 -14 -41 5 -9 8 -16 11 -16 6z"/>
<path d="M13 2533 c-28 -10 -13 -33 20 -33 40 0 100 -31 162 -84 25 -21 57
-40 70 -42 33 -3 32 12 0 20 -14 4 -47 28 -73 54 -26 26 -58 52 -72 59 -35 17
-93 31 -107 26z"/>
<path d="M850 2517 c0 -17 -36 -47 -46 -39 -4 4 -4 1 0 -5 4 -8 1 -13 -8 -13
-10 0 -16 -9 -16 -23 0 -13 -7 -32 -15 -43 -19 -25 -19 -41 0 -41 8 0 12 4 9
8 -6 10 31 70 42 70 5 0 8 7 6 15 -2 8 2 14 7 14 12 0 61 51 61 62 0 5 -9 8
-20 8 -11 0 -20 -6 -20 -13z"/>
<path d="M6 2433 c-13 -13 -5 -23 18 -23 29 0 96 -27 96 -39 0 -4 -11 -17 -25
-27 l-25 -18 45 -14 c25 -7 45 -19 45 -26 0 -8 -30 -26 -70 -42 -39 -15 -76
-34 -83 -42 -10 -13 -8 -14 13 -7 66 21 120 32 114 24 -3 -5 -1 -9 4 -9 15 0
32 49 32 91 0 47 -28 92 -68 113 -33 16 -88 27 -96 19z"/>
<path d="M484 2416 c-10 -10 11 -17 105 -34 64 -12 124 -22 133 -22 18 0 34
39 25 62 -3 7 -6 3 -6 -9 -1 -26 -21 -42 -21 -17 0 12 -3 14 -12 6 -7 -5 -26
-8 -43 -5 -16 3 -43 6 -60 8 -16 2 -31 4 -32 5 -2 2 -7 3 -12 4 -5 0 -13 4
-17 9 -12 11 -48 8 -60 -7z"/>
<path d="M469 2375 c0 -5 -2 -17 -4 -25 -2 -14 24 -19 127 -24 12 0 16 -6 13
-16 -4 -12 5 -15 48 -15 32 1 92 -12 156 -32 117 -37 114 -36 106 -24 -12 21
40 21 149 2 63 -12 127 -21 141 -21 31 0 34 -20 3 -21 -13 -1 -27 -1 -32 0
-16 3 -66 -10 -66 -18 0 -6 43 -12 95 -13 11 0 34 6 50 13 23 9 26 13 12 16
-9 3 -15 9 -11 14 3 5 10 7 15 4 5 -4 9 -2 9 4 0 16 -18 22 -23 9 -3 -10 -9
-10 -27 0 -26 16 -289 64 -308 57 -7 -2 -74 9 -149 26 -75 17 -170 34 -211 39
-44 5 -78 14 -83 22 -5 7 -9 9 -10 3z"/>
<path d="M359 2305 c-9 -19 -12 -32 -8 -29 13 8 41 64 32 64 -5 -1 -15 -16
-24 -35z"/>
<path d="M926 2321 c5 -5 63 -18 129 -30 66 -12 130 -25 143 -28 12 -3 22 -1
22 4 0 5 -28 14 -62 20 -87 15 -125 22 -181 33 -59 12 -63 12 -51 1z"/>
<path d="M310 2310 c0 -5 -9 -10 -19 -10 -11 0 -22 -4 -26 -10 -3 -5 -13 -6
-23 -3 -15 6 -15 5 -3 -10 14 -18 47 -24 36 -7 -3 6 5 14 19 20 22 8 37 30 21
30 -3 0 -5 -4 -5 -10z"/>
<path d="M1297 2254 c-13 -13 -7 -44 8 -44 22 0 18 -28 -5 -42 -11 -7 -20 -19
-20 -26 0 -7 -5 -10 -11 -6 -8 4 -9 0 -4 -15 4 -15 -1 -30 -19 -52 -29 -34
-31 -46 -15 -119 12 -56 17 -81 18 -91 1 -4 10 -9 22 -12 24 -6 25 -4 68 148
26 92 55 245 48 251 -8 7 -84 14 -90 8z m37 -106 c-11 -62 -56 -233 -64 -241
-11 -12 -30 49 -30 98 0 42 28 84 44 68 4 -5 7 -3 5 2 -1 6 1 19 5 30 4 11 12
32 18 48 14 37 29 34 22 -5z"/>
<path d="M515 2235 c23 -63 8 -104 -39 -106 -18 -1 -18 -2 -3 -6 10 -3 29 3
42 11 30 19 34 71 9 102 -15 19 -16 19 -9 -1z"/>
<path d="M337 2223 c-4 -3 7 -15 23 -25 42 -25 48 -23 16 7 -30 28 -30 28 -39
18z"/>
<path d="M206 2205 c-11 -8 -13 -15 -7 -20 6 -3 11 -2 11 4 0 5 10 11 23 13
17 2 18 5 7 9 -9 4 -24 1 -34 -6z"/>
<path d="M430 2187 c0 -8 7 -17 15 -21 8 -3 15 -3 15 0 0 3 -7 12 -15 20 -13
13 -15 13 -15 1z"/>
<path d="M574 2174 c3 -8 -3 -18 -12 -24 -15 -8 -14 -9 7 -7 19 2 24 -3 27
-26 2 -18 -3 -30 -12 -34 -22 -8 -17 -29 11 -41 37 -17 45 -14 12 4 -26 14
-27 17 -14 32 21 24 30 59 17 67 -5 3 -10 14 -10 24 0 10 -7 18 -15 18 -9 0
-14 -6 -11 -13z"/>
<path d="M157 2135 c-10 -7 -40 -19 -67 -25 -27 -6 -51 -18 -54 -26 -6 -15 19
-20 28 -5 5 7 86 34 110 35 5 1 10 -29 12 -66 4 -75 -4 -83 -52 -52 -13 9 -27
15 -29 12 -3 -2 12 -14 33 -25 28 -16 43 -19 61 -12 21 8 23 13 17 52 -4 24
-2 55 3 69 5 13 6 29 3 35 -12 18 -46 23 -65 8z"/>
<path d="M1181 2131 c-9 -6 -8 -11 3 -20 21 -18 37 -10 22 11 -7 10 -17 13
-25 9z"/>
<path d="M0 1988 c0 -7 32 -28 70 -45 79 -38 133 -42 188 -15 33 15 35 17 14
20 -13 2 -30 -2 -38 -9 -22 -18 -112 -12 -143 10 -50 35 -91 53 -91 39z"/>
<path d="M1372 1953 c7 -16 18 -37 25 -48 18 -28 16 -34 -13 -45 -16 -6 -24
-16 -21 -24 4 -9 -4 -16 -23 -20 -39 -7 -61 -45 -66 -107 -3 -50 -19 -83 -34
-74 -4 3 -10 -5 -13 -16 -3 -12 -10 -18 -16 -15 -15 9 -51 -16 -51 -35 0 -9
-7 -19 -15 -23 -8 -3 -15 -13 -15 -22 0 -11 11 -5 38 22 l37 37 5 -27 5 -28
30 27 c17 14 40 36 53 47 28 26 38 65 23 91 -10 15 -10 18 0 11 7 -4 3 7 -10
24 -17 24 -19 33 -9 36 7 3 30 10 50 16 71 22 90 94 43 163 -30 44 -39 48 -23
10z"/>
<path d="M0 1865 c0 -6 27 -24 60 -38 75 -34 165 -37 199 -8 29 25 8 33 -38
15 -51 -21 -100 -17 -163 15 -35 16 -58 23 -58 16z"/>
<path d="M1196 1840 c-8 -36 4 -83 24 -95 19 -12 25 5 10 28 -8 12 -17 40 -20
62 l-7 40 -7 -35z"/>
<path d="M1176 1526 c-13 -20 -13 -24 -2 -20 8 3 17 13 20 21 10 26 0 25 -18
-1z"/>
<path d="M1234 1508 c-3 -13 -15 -35 -26 -50 -11 -16 -17 -28 -13 -28 3 0 -7
-11 -22 -25 -20 -18 -22 -23 -9 -18 17 6 18 3 12 -28 -6 -32 -6 -33 8 -13 8
11 18 34 22 50 4 16 18 42 31 57 24 29 30 61 14 72 -5 3 -13 -5 -17 -17z"/>
<path d="M1125 1303 c-4 -16 -8 -51 -9 -80 0 -28 -5 -49 -9 -46 -5 3 -6 10 -4
17 2 6 1 20 -4 31 -6 17 -8 15 -8 -10 -1 -16 -6 -37 -11 -45 -8 -11 -9 -8 -6
13 3 15 0 27 -5 27 -5 0 -9 -7 -9 -15 0 -8 -6 -15 -12 -15 -9 0 -8 -4 2 -10
13 -9 7 -14 -12 -11 -5 0 -8 -3 -8 -9 0 -5 -4 -10 -10 -10 -5 0 -10 7 -10 17
0 15 -1 15 -18 0 -10 -10 -22 -17 -25 -17 -4 0 -7 7 -7 17 0 15 -1 15 -18 0
-10 -10 -22 -14 -26 -10 -4 4 -35 8 -69 10 -96 3 -190 14 -209 24 -10 6 -18 6
-18 1 0 -5 -6 -9 -14 -9 -9 0 -12 7 -9 16 4 10 -2 8 -16 -6 -12 -13 -27 -23
-34 -23 -7 0 -23 -16 -36 -35 -13 -19 -33 -45 -45 -58 -31 -33 -98 -165 -91
-177 4 -6 18 11 32 37 14 27 40 66 57 88 18 22 45 59 59 82 33 52 56 59 150
44 40 -6 108 -13 152 -16 89 -6 115 -12 115 -25 0 -6 12 -5 27 1 14 5 32 8 40
5 7 -3 13 -2 13 2 0 4 14 8 32 9 39 1 88 55 80 86 -4 15 -2 18 9 12 12 -8 12
-6 0 8 -12 15 -12 17 1 12 12 -5 14 0 11 19 -3 14 -9 26 -13 26 -4 0 -5 11 -2
25 6 34 -4 32 -13 -2z"/>
<path d="M1002 1290 c-18 -29 -15 -48 4 -22 8 12 14 27 12 32 -2 6 -9 1 -16
-10z"/>
<path d="M0 1031 c0 -10 55 -71 64 -71 17 0 2 28 -29 53 -19 15 -35 24 -35 18z"/>
<path d="M0 935 c0 -25 14 -34 24 -16 8 12 -3 41 -15 41 -5 0 -9 -11 -9 -25z"/>
<path d="M84 947 c-8 -22 11 -46 26 -31 7 7 5 17 -4 30 -14 18 -15 18 -22 1z"/>
<path d="M24 905 c-7 -18 12 -45 32 -45 7 0 11 -6 8 -14 -3 -8 3 -19 15 -26
12 -6 21 -17 21 -25 0 -18 26 -20 36 -3 4 7 -2 18 -14 26 -12 8 -22 20 -22 27
0 7 -7 15 -15 19 -8 3 -15 12 -15 20 0 9 -9 20 -20 26 -16 9 -22 8 -26 -5z"/>
<path d="M114 898 c-4 -7 2 -18 14 -26 12 -8 22 -21 22 -28 0 -8 7 -14 15 -14
8 0 15 -9 15 -20 0 -11 7 -20 15 -20 8 0 15 9 15 20 0 11 -7 20 -15 20 -8 0
-15 9 -15 19 0 10 -7 21 -15 25 -8 3 -15 12 -15 21 0 18 -26 20 -36 3z"/>
<path d="M220 849 c7 -11 14 -18 17 -15 8 8 -5 36 -17 36 -7 0 -7 -6 0 -21z"/>
<path d="M373 851 c3 -11 1 -19 -4 -15 -5 3 -9 0 -9 -5 0 -6 -10 -21 -21 -32
-12 -12 -17 -24 -12 -28 4 -3 16 -18 26 -34 18 -27 18 -27 -18 -64 -19 -20
-38 -34 -41 -30 -9 9 15 47 28 44 7 -1 14 6 16 16 5 23 -15 22 -28 -3 -13 -24
-30 -26 -30 -5 0 22 -9 19 -41 -17 -17 -17 -28 -38 -26 -47 3 -12 7 -9 15 10
14 34 42 46 42 19 0 -11 5 -20 11 -20 6 0 9 -9 6 -20 -7 -29 12 -25 23 5 5 14
16 25 25 25 9 0 20 12 26 27 l10 28 16 -34 c16 -32 16 -34 -8 -52 -19 -15 -21
-21 -11 -28 16 -9 12 -49 -3 -41 -6 3 -9 11 -9 18 2 17 -28 11 -34 -6 -2 -7 5
-16 17 -19 14 -3 21 -13 21 -29 0 -29 -15 -31 -30 -4 -11 21 -30 18 -30 -5 0
-7 11 -16 25 -19 23 -6 33 -25 19 -39 -9 -8 -72 26 -79 43 -3 8 1 20 9 26 9 6
16 18 16 27 0 9 9 21 20 27 11 6 20 17 20 25 0 8 6 15 14 15 17 0 41 28 32 37
-3 4 -15 -3 -26 -15 -12 -12 -25 -22 -31 -22 -5 0 -14 -10 -20 -22 -19 -43
-36 -69 -55 -82 -15 -12 -16 -16 -5 -30 7 -9 17 -13 22 -10 5 3 12 -2 15 -10
3 -9 12 -16 19 -16 7 0 28 -8 47 -17 18 -9 41 -20 52 -26 11 -5 22 -5 28 1 6
6 -3 14 -26 22 -20 6 -36 18 -36 26 0 18 24 18 40 -1 7 -8 17 -12 22 -9 6 4
14 0 19 -7 6 -10 9 -11 9 -1 0 6 7 12 15 12 8 0 15 5 15 10 0 6 -4 10 -8 10
-14 0 -42 79 -35 97 4 10 2 14 -5 9 -16 -10 -26 13 -12 29 7 9 9 27 5 47 -5
26 -4 30 5 18 10 -13 11 -13 7 2 -3 9 -1 19 6 21 7 2 9 8 5 12 -4 4 -15 -1
-25 -11 -17 -16 -18 -16 -21 -1 -2 9 -8 17 -13 17 -5 0 -9 8 -9 18 0 14 2 15
10 2 5 -8 10 -10 10 -4 0 5 -6 16 -12 22 -14 14 -20 72 -8 72 5 0 11 -10 13
-22 3 -13 4 -1 3 26 0 33 -6 51 -15 54 -10 3 -12 -1 -8 -17z m42 -241 c3 -6
-1 -13 -10 -16 -19 -8 -30 0 -20 15 8 14 22 14 30 1z m5 -81 c0 -10 -4 -19 -9
-19 -14 0 -33 28 -27 39 10 16 36 1 36 -20z m-17 -34 c9 -9 17 -11 19 -4 2 5
9 -5 15 -23 10 -26 10 -30 0 -18 -7 8 -19 16 -27 18 -19 5 -40 22 -40 33 0 14
17 11 33 -6z"/>
<path d="M0 841 c0 -12 5 -21 10 -21 6 0 10 6 10 14 0 8 -4 18 -10 21 -5 3
-10 -3 -10 -14z"/>
<path d="M250 822 c0 -11 -11 -27 -25 -36 -14 -9 -25 -21 -25 -26 0 -17 30
-11 37 8 4 9 12 21 20 25 15 9 17 33 3 42 -5 3 -10 -3 -10 -13z"/>
<path d="M16 802 c-8 -13 11 -35 23 -28 16 10 14 36 -3 36 -8 0 -17 -4 -20 -8z"/>
<path d="M274 786 c-8 -22 3 -33 18 -18 9 9 9 15 0 24 -9 9 -13 7 -18 -6z"/>
<path d="M133 763 c-3 -10 -8 -21 -10 -25 -2 -3 4 -5 13 -4 18 3 35 26 28 38
-9 14 -24 9 -31 -9z"/>
<path d="M53 753 c-3 -10 -8 -21 -10 -25 -2 -4 6 -4 19 1 25 9 31 32 11 38 -7
3 -16 -4 -20 -14z"/>
<path d="M297 739 c-3 -13 -1 -19 6 -16 15 5 22 37 9 37 -5 0 -12 -9 -15 -21z"/>
<path d="M233 731 c-2 -10 -16 -24 -29 -30 -13 -6 -24 -17 -24 -26 0 -22 21
-18 27 5 3 11 16 23 29 26 15 4 24 14 24 25 0 25 -20 25 -27 0z"/>
<path d="M4 710 c2 -37 10 -44 26 -25 11 13 10 19 -7 35 -20 18 -21 18 -19
-10z"/>
<path d="M162 728 c-17 -17 -15 -28 7 -28 10 0 21 9 24 20 6 22 -12 27 -31 8z"/>
<path d="M79 701 c-6 -18 -16 -28 -23 -25 -15 6 -30 -22 -20 -37 3 -5 12 -9
20 -9 8 0 14 -9 14 -20 0 -11 7 -20 15 -20 9 0 15 -9 15 -21 0 -25 20 -20 31
8 6 16 4 20 -9 19 -11 -1 -17 6 -16 20 0 14 -4 20 -13 17 -7 -3 -16 3 -19 12
-5 12 2 24 21 39 17 13 25 28 21 34 -12 20 -27 13 -37 -17z"/>
<path d="M114 675 c-6 -15 2 -35 15 -35 5 0 11 11 13 25 6 28 -18 36 -28 10z"/>
<path d="M144 635 c-7 -17 4 -37 17 -30 12 8 12 45 -1 45 -6 0 -13 -7 -16 -15z"/>
<path d="M231 606 c-5 -13 -16 -26 -24 -29 -16 -6 -30 -47 -16 -47 5 0 16 12
26 28 10 15 23 31 30 35 15 10 17 37 3 37 -6 0 -15 -11 -19 -24z"/>
<path d="M0 600 c0 -11 4 -20 10 -20 5 0 7 -7 4 -15 -8 -19 23 -32 39 -16 8 8
5 16 -11 31 -12 12 -22 25 -22 30 0 6 -4 10 -10 10 -5 0 -10 -9 -10 -20z"/>
<path d="M183 613 c-7 -2 -13 -13 -13 -23 0 -10 -11 -25 -25 -34 -14 -9 -25
-23 -25 -31 0 -23 19 -18 29 8 5 12 19 30 30 39 12 10 21 25 21 33 0 8 -1 15
-2 14 -2 0 -9 -3 -15 -6z"/>
<path d="M250 565 c-5 -14 -14 -25 -19 -25 -6 0 -15 -9 -21 -20 -9 -16 -8 -20
5 -20 8 0 20 11 25 25 5 14 14 25 19 25 5 0 11 9 14 20 7 29 -12 25 -23 -5z"/>
<path d="M44 514 c-9 -14 -22 -23 -29 -20 -8 3 -12 -5 -11 -22 1 -31 19 -33
24 -2 2 12 14 25 26 30 27 10 43 40 21 40 -8 0 -22 -11 -31 -26z"/>
<path d="M146 504 c-8 -22 -8 -24 8 -24 12 0 26 20 26 36 0 12 -29 2 -34 -12z"/>
<path d="M75 489 c-8 -25 -1 -34 20 -26 19 8 20 33 1 40 -9 4 -17 -2 -21 -14z"/>
<path d="M177 483 c-13 -12 -7 -34 11 -40 9 -3 24 -11 32 -18 8 -6 35 -18 60
-25 25 -8 63 -22 85 -32 50 -22 77 -24 49 -3 -10 8 -25 15 -32 15 -13 0 -96
35 -122 51 -8 5 -25 13 -37 19 -13 5 -23 16 -23 25 0 16 -12 20 -23 8z"/>
<path d="M113 463 c-15 -5 1 -43 18 -43 6 0 17 -7 25 -15 9 -8 24 -15 34 -15
10 0 22 -4 25 -10 3 -5 15 -10 26 -10 10 0 27 -4 37 -9 79 -40 107 -51 127
-51 14 0 38 -15 60 -37 19 -20 35 -31 35 -25 0 12 -58 72 -69 72 -10 0 -108
38 -133 51 -10 5 -25 9 -33 9 -14 0 -37 10 -75 32 -8 5 -23 11 -32 14 -10 4
-18 15 -18 25 0 19 -5 21 -27 12z"/>
<path d="M37 444 c-8 -9 3 -34 16 -34 6 0 18 -6 26 -13 9 -7 36 -19 61 -26 73
-21 104 -33 121 -48 8 -7 23 -13 32 -13 9 0 17 -4 17 -10 0 -5 12 -13 28 -16
15 -4 32 -10 37 -14 6 -4 25 -10 43 -13 25 -5 32 -3 32 9 0 8 -6 14 -12 12
-17 -3 -52 9 -118 39 -77 36 -89 41 -140 54 -25 7 -52 18 -61 26 -8 7 -21 13
-27 13 -6 0 -16 9 -22 20 -11 20 -22 25 -33 14z"/>
<path d="M487 428 c-4 -13 0 -29 8 -38 8 -9 12 -20 9 -23 -4 -4 4 -16 17 -27
l24 -21 -25 5 c-14 3 -19 3 -12 0 6 -3 12 -15 13 -27 0 -17 5 -12 20 18 20 44
24 75 9 75 -5 0 -10 -12 -10 -26 0 -15 -4 -23 -10 -19 -6 4 -8 21 -4 41 4 22
2 34 -5 34 -6 0 -11 -7 -11 -16 0 -8 -4 -13 -9 -10 -4 3 -6 17 -3 31 5 31 -3
33 -11 3z"/>
<path d="M0 412 c0 -12 94 -72 114 -72 14 0 68 -22 96 -39 8 -5 22 -12 30 -15
8 -4 29 -15 45 -25 17 -11 42 -20 57 -20 15 -1 30 -5 33 -11 8 -12 35 -13 35
-1 0 5 -26 17 -57 27 -32 9 -63 21 -68 25 -23 17 -135 69 -149 69 -15 0 -97
42 -123 63 -9 6 -13 6 -13 -1z"/>
<path d="M440 387 c0 -14 4 -28 8 -31 10 -6 10 40 0 50 -5 4 -8 -4 -8 -19z"/>
<path d="M24 349 c14 -11 32 -19 39 -16 6 2 -2 11 -20 20 -43 23 -51 21 -19
-4z"/>
<path d="M571 337 c0 -15 -7 -30 -15 -33 -8 -3 -12 -12 -9 -20 8 -22 18 -17
35 21 8 19 12 32 7 30 -4 -3 -10 3 -12 12 -3 11 -5 7 -6 -10z"/>
<path d="M3 315 c0 -15 13 -36 33 -55 19 -17 34 -37 34 -44 0 -8 7 -16 15 -20
8 -3 15 -17 15 -30 0 -14 6 -29 14 -33 7 -4 15 -20 18 -36 5 -24 3 -26 -10
-15 -9 7 -13 9 -10 3 2 -5 8 -19 12 -30 6 -15 9 -16 15 -6 11 18 31 5 31 -20
0 -11 -4 -17 -10 -14 -5 3 -10 1 -10 -4 0 -6 11 -11 25 -11 30 0 32 19 5 50
-11 13 -20 29 -20 37 0 8 -7 21 -15 29 -8 9 -15 24 -15 33 0 10 -7 24 -15 31
-8 7 -15 17 -15 23 0 6 -10 21 -22 34 -12 13 -18 26 -15 30 11 11 62 -48 93
-107 15 -30 31 -57 35 -60 4 -3 11 -18 14 -33 4 -15 11 -27 15 -27 5 0 12 -9
15 -20 3 -11 13 -20 22 -20 14 0 14 2 1 18 -8 9 -20 28 -26 42 -7 14 -20 37
-30 52 -35 53 -72 121 -69 125 5 4 13 -6 61 -74 20 -29 36 -57 36 -61 0 -5 9
-17 20 -27 11 -10 20 -26 20 -35 0 -10 6 -23 14 -29 12 -10 13 -8 9 11 -3 13
-11 29 -17 37 -14 18 -33 50 -51 88 -8 17 -19 34 -25 38 -5 3 -10 11 -10 17 0
18 51 -34 67 -67 21 -45 39 -75 52 -88 6 -6 11 -19 11 -29 0 -10 7 -18 15 -18
12 0 11 8 -7 43 -12 23 -25 44 -29 47 -3 3 -10 16 -14 30 -4 13 -15 31 -23 40
-14 13 -14 15 1 18 22 4 10 32 -15 32 -11 0 -27 7 -35 16 -13 13 -18 13 -24 2
-7 -10 -10 -8 -15 9 -7 26 -34 39 -46 21 -6 -10 -10 -7 -14 9 -7 26 -34 39
-46 21 -6 -10 -10 -7 -14 8 -3 12 -16 26 -29 32 -20 9 -22 8 -22 -13z"/>
<path d="M440 336 c0 -3 15 -15 33 -27 l32 -23 -24 27 c-22 24 -41 35 -41 23z"/>
<path d="M80 326 c0 -3 26 -16 57 -31 32 -14 60 -31 64 -36 3 -6 15 -9 25 -6
15 3 12 7 -16 21 -19 9 -42 20 -50 25 -54 30 -80 38 -80 27z"/>
<path d="M591 284 c-6 -14 -9 -30 -6 -35 10 -15 -7 -10 -27 8 -22 20 -34 12
-19 -14 7 -13 10 -14 11 -3 0 11 3 11 12 2 10 -10 10 -15 1 -20 -8 -5 -9 -13
-3 -22 8 -13 10 -12 10 3 0 19 15 23 25 7 4 -6 -12 -29 -35 -51 -23 -22 -39
-43 -36 -46 3 -3 12 -1 20 6 11 9 15 9 19 -1 3 -7 6 0 6 15 1 18 5 26 12 21 6
-3 9 -14 6 -24 -3 -11 1 -21 9 -24 8 -3 14 -11 14 -17 0 -27 35 -89 49 -88 11
0 12 2 4 6 -7 2 -13 13 -13 23 0 10 -4 22 -10 25 -5 3 -10 13 -10 21 0 8 5 12
10 9 6 -3 10 -1 10 6 0 10 3 10 12 1 10 -10 10 -15 1 -20 -9 -5 -6 -17 9 -41
19 -29 22 -31 31 -15 7 12 6 23 -2 35 -6 11 -11 26 -11 34 0 8 -6 14 -12 12
-9 -1 -12 8 -10 26 1 15 -2 27 -8 27 -5 0 -10 11 -10 24 0 14 -4 28 -10 31 -5
3 -11 21 -11 38 -1 18 -3 24 -6 15 -2 -10 -8 -18 -13 -18 -15 0 -17 24 -3 38
15 15 17 32 5 32 -5 0 -14 -12 -21 -26z m44 -102 c-3 -8 1 -23 10 -32 17 -19
12 -45 -11 -54 -9 -3 -17 1 -20 12 -3 9 -10 25 -16 36 -7 14 -6 21 4 27 7 5 9
9 3 9 -5 0 -3 5 5 10 13 9 13 12 -2 21 -10 5 -18 15 -18 21 0 6 11 1 25 -12
14 -13 23 -30 20 -38z m59 -151 c-6 -6 -24 19 -24 34 1 6 7 1 15 -9 8 -11 12
-22 9 -25z"/>
<path d="M0 250 c0 -8 7 -20 15 -29 33 -35 63 -77 69 -98 4 -13 11 -23 16 -23
12 0 0 37 -16 51 -8 6 -14 17 -14 23 0 7 -16 29 -35 50 -19 21 -35 33 -35 26z"/>
<path d="M260 236 c22 -20 133 -57 143 -47 8 8 -77 41 -107 41 -9 0 -16 5 -16
10 0 6 -8 10 -17 10 -15 0 -15 -2 -3 -14z"/>
<path d="M460 239 c0 -6 -7 -9 -15 -6 -8 4 -17 2 -20 -4 -4 -5 2 -12 11 -16
11 -4 19 -2 22 6 3 9 7 9 18 0 8 -6 11 -15 8 -20 -3 -5 1 -18 9 -29 11 -17 16
-18 25 -7 8 10 3 22 -24 50 -18 21 -34 33 -34 26z"/>
<path d="M510 236 c0 -8 5 -18 10 -21 6 -3 10 1 10 9 0 8 -4 18 -10 21 -5 3
-10 -1 -10 -9z"/>
<path d="M425 190 c3 -5 15 -10 26 -10 11 0 17 5 14 10 -3 6 -15 10 -26 10
-11 0 -17 -4 -14 -10z"/>
<path d="M7 166 c3 -14 14 -33 24 -42 10 -9 19 -24 19 -33 0 -9 9 -22 19 -28
11 -7 21 -22 23 -34 2 -12 9 -24 16 -27 19 -6 14 27 -8 45 -11 10 -20 25 -20
34 0 9 -9 24 -20 34 -11 10 -20 23 -20 30 0 7 -8 20 -19 29 -17 16 -18 16 -14
-8z"/>
<path d="M292 172 c-9 -7 -8 -14 8 -32 11 -13 20 -28 20 -33 0 -15 40 -96 51
-102 11 -7 4 14 -27 82 -13 28 -24 57 -24 63 0 21 25 4 28 -18 2 -12 8 -22 13
-22 5 0 9 -11 9 -24 0 -13 7 -29 15 -36 8 -7 15 -21 15 -31 0 -11 5 -19 10
-19 6 0 10 6 10 14 0 8 -4 18 -10 21 -5 3 -10 15 -10 25 0 11 -14 42 -31 70
-30 48 -49 59 -77 42z"/>
<path d="M367 153 c3 -8 14 -13 25 -10 11 3 22 -2 28 -13 14 -27 12 -34 -5
-20 -19 16 -19 0 0 -26 8 -10 15 -26 15 -34 1 -17 28 -56 34 -49 2 2 -4 20
-13 40 -19 38 -25 107 -8 90 5 -5 15 -7 22 -5 15 6 50 -70 41 -91 -3 -9 -10
-13 -16 -10 -11 7 -14 -8 -3 -18 3 -4 14 4 23 19 15 21 18 23 24 9 3 -9 4 -21
0 -26 -3 -5 1 -9 9 -9 20 0 10 54 -14 76 -10 9 -19 25 -19 35 0 22 -45 43
-107 51 -34 5 -41 3 -36 -9z"/>
<path d="M1 110 c-3 -52 34 -109 69 -109 12 0 11 2 -2 10 -10 5 -18 16 -18 24
0 7 -7 20 -15 29 -8 8 -19 25 -24 38 -6 13 -10 16 -10 8z"/>
<path d="M465 90 c5 -15 4 -20 -4 -16 -6 4 -11 3 -11 -3 0 -5 5 -13 10 -16 6
-3 10 -1 10 5 0 6 4 9 9 6 5 -4 7 3 4 14 -3 11 -10 23 -15 26 -6 4 -7 -2 -3
-16z"/>
<path d="M570 81 c0 -12 5 -21 10 -21 6 0 10 6 10 14 0 8 -4 18 -10 21 -5 3
-10 -3 -10 -14z"/>
<path d="M587 28 c-4 -12 -4 -24 -2 -27 3 -2 5 1 5 9 0 10 3 10 14 1 12 -10
13 -8 9 9 -8 29 -20 33 -26 8z"/>
</g>
</svg>
