<svg id="visual" preserveAspectRatio="xMidYMid" viewBox="0 0 1000 2000" width="1200" height="2490" xmlns="http://www.w3.org/2000/svg" xmlns:xlink="http://www.w3.org/1999/xlink" version="1.1"><g><g transform="translate(728 1551)"><path d="M0 -100.7L100.7 0L0 100.7L-100.7 0Z" stroke="#ffffff" fill="none" stroke-width="2"></path></g><g transform="translate(956 1630)"><path d="M0 -95L95 0L0 95L-95 0Z" stroke="#ffffff" fill="none" stroke-width="2"></path></g><g transform="translate(901 1134)"><path d="M0 -79L79 0L0 79L-79 0Z" stroke="#ffffff" fill="none" stroke-width="2"></path></g><g transform="translate(247 1776)"><path d="M0 -54L54 0L0 54L-54 0Z" stroke="#ffffff" fill="none" stroke-width="2"></path></g><g transform="translate(15 542)"><path d="M0 -45L45 0L0 45L-45 0Z" stroke="#ffffff" fill="none" stroke-width="2"></path></g><g transform="translate(911 203)"><path d="M0 -81L81 0L0 81L-81 0Z" stroke="#ffffff" fill="none" stroke-width="2"></path></g><g transform="translate(40 1125)"><path d="M0 -52L52 0L0 52L-52 0Z" stroke="#ffffff" fill="none" stroke-width="2"></path></g><g transform="translate(699 608)"><path d="M0 -46L46 0L0 46L-46 0Z" stroke="#ffffff" fill="none" stroke-width="2"></path></g><g transform="translate(95 1433)"><path d="M0 -93L93 0L0 93L-93 0Z" stroke="#ffffff" fill="none" stroke-width="2"></path></g><g transform="translate(1003 1331)"><path d="M0 -47L47 0L0 47L-47 0Z" stroke="#ffffff" fill="none" stroke-width="2"></path></g><g transform="translate(53 162)"><path d="M0 -95L95 0L0 95L-95 0Z" stroke="#ffffff" fill="none" stroke-width="2"></path></g><g transform="translate(380 1178)"><path d="M0 -73L73 0L0 73L-73 0Z" stroke="#ffffff" fill="none" stroke-width="2"></path></g><g transform="translate(659 1344)"><path d="M0 -63L63 0L0 63L-63 0Z" stroke="#ffffff" fill="none" stroke-width="2"></path></g><g transform="translate(273 986)"><path d="M0 -47L47 0L0 47L-47 0Z" stroke="#ffffff" fill="none" stroke-width="2"></path></g><g transform="translate(631 344)"><path d="M0 -88L88 0L0 88L-88 0Z" stroke="#ffffff" fill="none" stroke-width="2"></path></g><g transform="translate(382 15)"><path d="M0 -49L49 0L0 49L-49 0Z" stroke="#ffffff" fill="none" stroke-width="2"></path></g><g transform="translate(445 1600)"><path d="M0 -91L91 0L0 91L-91 0Z" stroke="#ffffff" fill="none" stroke-width="2"></path></g><g transform="translate(921 599)"><path d="M0 -93L93 0L0 93L-93 0Z" stroke="#ffffff" fill="none" stroke-width="2"></path></g><g transform="translate(46 836)"><path d="M0 -92L92 0L0 92L-92 0Z" stroke="#ffffff" fill="none" stroke-width="2"></path></g><g transform="translate(684 52)"><path d="M0 -43L43 0L0 43L-43 0Z" stroke="#ffffff" fill="none" stroke-width="2"></path></g><g transform="translate(452 869)"><path d="M0 -82L82 0L0 82L-82 0Z" stroke="#ffffff" fill="none" stroke-width="2"></path></g><g transform="translate(338 663)"><path d="M0 -38L38 0L0 38L-38 0Z" stroke="#ffffff" fill="none" stroke-width="2"></path></g><g transform="translate(1073 777)"><path d="M0 -94L94 0L0 94L-94 0Z" stroke="#ffffff" fill="none" stroke-width="2"></path></g><g transform="translate(956 1902)"><path d="M0 -42L42 0L0 42L-42 0Z" stroke="#ffffff" fill="none" stroke-width="2"></path></g><g transform="translate(253 384)"><path d="M0 -82L82 0L0 82L-82 0Z" stroke="#ffffff" fill="none" stroke-width="2"></path></g><g transform="translate(766 831)"><path d="M0 -58L58 0L0 58L-58 0Z" stroke="#ffffff" fill="none" stroke-width="2"></path></g><g transform="translate(575 1901)"><path d="M0 -92L92 0L0 92L-92 0Z" stroke="#ffffff" fill="none" stroke-width="2"></path></g><g transform="translate(1057 359)"><path d="M0 -74L74 0L0 74L-74 0Z" stroke="#ffffff" fill="none" stroke-width="2"></path></g><g transform="translate(1068 40)"><path d="M0 -42L42 0L0 42L-42 0Z" stroke="#ffffff" fill="none" stroke-width="2"></path></g><g transform="translate(696 1058)"><path d="M0 -96L96 0L0 96L-96 0Z" stroke="#ffffff" fill="none" stroke-width="2"></path></g><g transform="translate(26 1828)"><path d="M0 -38L38 0L0 38L-38 0Z" stroke="#ffffff" fill="none" stroke-width="2"></path></g><g transform="translate(333 1415)"><path d="M0 -93L93 0L0 93L-93 0Z" stroke="#ffffff" fill="none" stroke-width="2"></path></g><g transform="translate(450 242)"><path d="M0 -58L58 0L0 58L-58 0Z" stroke="#ffffff" fill="none" stroke-width="2"></path></g><g transform="translate(503 530)"><path d="M0 -90L90 0L0 90L-90 0Z" stroke="#ffffff" fill="none" stroke-width="2"></path></g></g></svg>